<mxfile host="app.diagrams.net" modified="2023-09-30T15:33:31.280Z" agent="Mozilla/5.0 (Windows NT 10.0; Win64; x64) AppleWebKit/537.36 (KHTML, like Gecko) Chrome/117.0.0.0 Safari/537.36" version="22.0.0" etag="oJ8YIKAiHpyoLqTdpBx1" type="github">
  <diagram name="Page-1" id="r4VBydzxiSqNUhu3DsnS">
    <mxGraphModel>
      <root>
        <mxCell id="0" />
        <mxCell id="1" parent="0" />
      </root>
    </mxGraphModel>
  </diagram>
</mxfile>
